<?xml version="1.0" standalone="no"?>
<!DOCTYPE svg PUBLIC "-//W3C//DTD SVG 20010904//EN"
 "http://www.w3.org/TR/2001/REC-SVG-20010904/DTD/svg10.dtd">
<svg version="1.0" xmlns="http://www.w3.org/2000/svg"
 width="260.000000pt" height="260.000000pt" viewBox="0 0 260.000000 260.000000"
 preserveAspectRatio="xMidYMid meet">
<metadata>
Created by potrace 1.11, written by Peter Selinger 2001-2013
</metadata>
<g transform="translate(0.000000,260.000000) scale(0.100000,-0.100000)"
fill="#000000" stroke="none">
<path d="M995 2223 c-20 -49 -45 -106 -55 -128 -10 -22 -30 -69 -45 -105 -14
-36 -32 -79 -40 -95 -7 -17 -23 -53 -35 -80 -12 -27 -27 -63 -34 -80 -7 -16
-19 -43 -26 -60 -28 -66 -202 -472 -215 -500 -7 -16 -75 -174 -150 -350 -75
-176 -144 -338 -154 -360 -27 -60 -71 -166 -71 -171 0 -2 121 -4 269 -4 l269
0 12 32 c7 18 19 47 25 63 7 17 32 80 56 140 23 61 47 113 52 116 5 4 203 6
439 5 l430 -1 67 -175 68 -175 282 -3 281 -2 -15 37 c-9 21 -32 76 -52 123
-19 47 -41 100 -49 117 -33 76 -44 102 -79 188 -20 50 -42 104 -50 120 -7 17
-36 86 -65 155 -28 69 -58 138 -66 154 -8 16 -14 33 -14 37 0 5 -11 32 -24 61
-13 29 -47 109 -76 178 -29 69 -58 139 -65 155 -17 38 -217 517 -252 605 -15
36 -31 71 -36 78 -7 9 -75 12 -277 12 l-268 0 -37 -87z m305 -474 c0 -10 48
-138 80 -214 4 -11 13 -36 20 -55 7 -19 16 -44 21 -55 19 -44 139 -360 139
-367 0 -4 -124 -8 -275 -8 -151 0 -275 2 -275 4 0 5 68 183 85 221 7 17 41
102 75 190 97 252 114 295 123 295 4 0 7 -5 7 -11z"/>
</g>
</svg>
