<svg version="1" xmlns="http://www.w3.org/2000/svg" width="346.667" height="346.667" viewBox="0 0 260.000000 260.000000"><path d="M26.9 129.5L5.3 180h27.2l3.4-9 3.5-8.9 21.9.2 22 .2 3.2 8.5 3.2 8.5 14.2.3 14.1.3-1.6-3.8c-3.6-8.6-30-71.8-35.1-84.1L75.8 79H48.5l-21.6 50.5zm41.6-5.2c3.6 9.3 6.5 17 6.5 17.3 0 .2-6.1.4-13.5.4-7.6 0-13.5-.4-13.5-.9s2.4-7.2 5.4-14.8c3-7.6 6-15.1 6.6-16.7.6-1.6 1.2-2.7 1.5-2.5.2.3 3.3 8 7 17.2zM127.9 79.2c-.1.4-.1 96.8 0 99 .1 1.6 1.3 1.8 11.6 1.8H151l.1-3.8c0-2 .1-16 0-31 0-14.9.2-27.2.5-27.2s5.2 9.8 11 21.7c5.8 12 11.5 23.7 12.6 26l2.2 4.3H194.1l9.2-19.3c5.1-10.5 10.9-22.6 12.9-26.7l3.7-7.5v31.7l.1 31.8h11.5c6.3 0 11.5-.3 11.6-.8.4-3.2.3-98.6-.2-99.3-.3-.6-6.5-.8-14.3-.7l-13.8.3-2.2 4.1c-1.1 2.2-7.7 15.4-14.6 29.3L185.6 138l-14.5-29.5L156.6 79h-14.3c-7.9 0-14.3.1-14.4.2z"/></svg>